<?xml version="1.0" encoding="UTF-8"?>
<svg xmlns="http://www.w3.org/2000/svg" xmlns:xlink="http://www.w3.org/1999/xlink" version="1.1" viewBox="0 0 162.8 45">
  <defs>
    <style>
      .cls-1 {
        fill: url(#linear-gradient-8);
      }

      .cls-2 {
        fill: url(#linear-gradient-7);
      }

      .cls-3 {
        fill: url(#linear-gradient-5);
      }

      .cls-4 {
        fill: url(#linear-gradient-6);
      }

      .cls-5 {
        fill: url(#linear-gradient-9);
      }

      .cls-6 {
        fill: url(#linear-gradient-4);
      }

      .cls-7 {
        fill: url(#linear-gradient-3);
      }

      .cls-8 {
        fill: url(#linear-gradient-2);
      }

      .cls-9 {
        fill: url(#linear-gradient);
      }

      .cls-10 {
        fill: #fff;
      }

      .cls-11 {
        fill: url(#linear-gradient-10);
      }

      .cls-12 {
        fill: url(#linear-gradient-11);
      }

      .cls-13 {
        fill: url(#linear-gradient-12);
      }

      .cls-14 {
        fill: url(#linear-gradient-13);
      }

      .cls-15 {
        fill: url(#linear-gradient-19);
      }

      .cls-16 {
        fill: url(#linear-gradient-14);
      }

      .cls-17 {
        fill: url(#linear-gradient-21);
      }

      .cls-18 {
        fill: url(#linear-gradient-20);
      }

      .cls-19 {
        fill: url(#linear-gradient-22);
      }

      .cls-20 {
        fill: url(#linear-gradient-15);
      }

      .cls-21 {
        fill: url(#linear-gradient-16);
      }

      .cls-22 {
        fill: url(#linear-gradient-17);
      }

      .cls-23 {
        fill: url(#linear-gradient-18);
      }
    </style>
    <linearGradient id="linear-gradient" x1="204.4" y1="80.2" x2="119.3" y2="3.6" gradientTransform="translate(0 22) scale(1 -1)" gradientUnits="userSpaceOnUse">
      <stop offset="0" stop-color="#a3a5a8"/>
      <stop offset="1" stop-color="#fff"/>
    </linearGradient>
    <linearGradient id="linear-gradient-2" x1="211.8" y1="72" x2="126.5" y2="-4.6" gradientTransform="translate(0 22) scale(1 -1)" gradientUnits="userSpaceOnUse">
      <stop offset="0" stop-color="#a3a5a8"/>
      <stop offset="1" stop-color="#fff"/>
    </linearGradient>
    <linearGradient id="linear-gradient-3" x1="210.5" y1="73.5" x2="125.3" y2="-3.1" gradientTransform="translate(0 22) scale(1 -1)" gradientUnits="userSpaceOnUse">
      <stop offset="0" stop-color="#a3a5a8"/>
      <stop offset="1" stop-color="#fff"/>
    </linearGradient>
    <linearGradient id="linear-gradient-4" x1="206.5" y1="77.9" x2="121.3" y2="1.3" gradientTransform="translate(0 22) scale(1 -1)" gradientUnits="userSpaceOnUse">
      <stop offset="0" stop-color="#a3a5a8"/>
      <stop offset="1" stop-color="#fff"/>
    </linearGradient>
    <linearGradient id="linear-gradient-5" x1="211" y1="72.9" x2="125.8" y2="-3.7" gradientTransform="translate(0 22) scale(1 -1)" gradientUnits="userSpaceOnUse">
      <stop offset="0" stop-color="#a3a5a8"/>
      <stop offset="1" stop-color="#fff"/>
    </linearGradient>
    <linearGradient id="linear-gradient-6" x1="216.1" y1="67.2" x2="130.9" y2="-9.3" gradientTransform="translate(0 22) scale(1 -1)" gradientUnits="userSpaceOnUse">
      <stop offset="0" stop-color="#a3a5a8"/>
      <stop offset="1" stop-color="#fff"/>
    </linearGradient>
    <linearGradient id="linear-gradient-7" x1="204.1" y1="80.5" x2="119" y2="4" gradientTransform="translate(0 22) scale(1 -1)" gradientUnits="userSpaceOnUse">
      <stop offset="0" stop-color="#a3a5a8"/>
      <stop offset="1" stop-color="#fff"/>
    </linearGradient>
    <linearGradient id="linear-gradient-8" x1="214.1" y1="69.4" x2="129" y2="-7.2" gradientTransform="translate(0 22) scale(1 -1)" gradientUnits="userSpaceOnUse">
      <stop offset="0" stop-color="#a3a5a8"/>
      <stop offset="1" stop-color="#fff"/>
    </linearGradient>
    <linearGradient id="linear-gradient-9" x1="221.6" y1="61.2" x2="136.4" y2="-15.5" gradientTransform="translate(0 22) scale(1 -1)" gradientUnits="userSpaceOnUse">
      <stop offset="0" stop-color="#a3a5a8"/>
      <stop offset="1" stop-color="#fff"/>
    </linearGradient>
    <linearGradient id="linear-gradient-10" x1="210.6" y1="73.4" x2="125.5" y2="-3.2" gradientTransform="translate(0 22) scale(1 -1)" gradientUnits="userSpaceOnUse">
      <stop offset="0" stop-color="#a3a5a8"/>
      <stop offset="1" stop-color="#fff"/>
    </linearGradient>
    <linearGradient id="linear-gradient-11" x1="217.8" y1="65.2" x2="132.7" y2="-11.3" gradientTransform="translate(0 22) scale(1 -1)" gradientUnits="userSpaceOnUse">
      <stop offset="0" stop-color="#a3a5a8"/>
      <stop offset="1" stop-color="#fff"/>
    </linearGradient>
    <linearGradient id="linear-gradient-12" x1="213.9" y1="69.6" x2="128.7" y2="-7" gradientTransform="translate(0 22) scale(1 -1)" gradientUnits="userSpaceOnUse">
      <stop offset="0" stop-color="#a3a5a8"/>
      <stop offset="1" stop-color="#fff"/>
    </linearGradient>
    <linearGradient id="linear-gradient-13" x1="221.2" y1="61.4" x2="136.2" y2="-15.2" gradientTransform="translate(0 22) scale(1 -1)" gradientUnits="userSpaceOnUse">
      <stop offset="0" stop-color="#a3a5a8"/>
      <stop offset="1" stop-color="#fff"/>
    </linearGradient>
    <linearGradient id="linear-gradient-14" x1="221.1" y1="61.6" x2="135.9" y2="-14.9" gradientTransform="translate(0 22) scale(1 -1)" gradientUnits="userSpaceOnUse">
      <stop offset="0" stop-color="#a3a5a8"/>
      <stop offset="1" stop-color="#fff"/>
    </linearGradient>
    <linearGradient id="linear-gradient-15" x1="217.8" y1="65.4" x2="132.6" y2="-11.3" gradientTransform="translate(0 22) scale(1 -1)" gradientUnits="userSpaceOnUse">
      <stop offset="0" stop-color="#a3a5a8"/>
      <stop offset="1" stop-color="#fff"/>
    </linearGradient>
    <linearGradient id="linear-gradient-16" x1="215.4" y1="68" x2="130.3" y2="-8.6" gradientTransform="translate(0 22) scale(1 -1)" gradientUnits="userSpaceOnUse">
      <stop offset="0" stop-color="#a3a5a8"/>
      <stop offset="1" stop-color="#fff"/>
    </linearGradient>
    <linearGradient id="linear-gradient-17" x1="210.2" y1="73.8" x2="125.1" y2="-2.8" gradientTransform="translate(0 22) scale(1 -1)" gradientUnits="userSpaceOnUse">
      <stop offset="0" stop-color="#a3a5a8"/>
      <stop offset="1" stop-color="#fff"/>
    </linearGradient>
    <linearGradient id="linear-gradient-18" x1="225.4" y1="56.8" x2="140.3" y2="-19.8" gradientTransform="translate(0 22) scale(1 -1)" gradientUnits="userSpaceOnUse">
      <stop offset="0" stop-color="#a3a5a8"/>
      <stop offset="1" stop-color="#fff"/>
    </linearGradient>
    <linearGradient id="linear-gradient-19" x1="228.9" y1="53" x2="143.8" y2="-23.6" gradientTransform="translate(0 22) scale(1 -1)" gradientUnits="userSpaceOnUse">
      <stop offset="0" stop-color="#a3a5a8"/>
      <stop offset="1" stop-color="#fff"/>
    </linearGradient>
    <linearGradient id="linear-gradient-20" x1="221.9" y1="60.6" x2="136.9" y2="-16" gradientTransform="translate(0 22) scale(1 -1)" gradientUnits="userSpaceOnUse">
      <stop offset="0" stop-color="#a3a5a8"/>
      <stop offset="1" stop-color="#fff"/>
    </linearGradient>
    <linearGradient id="linear-gradient-21" x1="228.3" y1="53.7" x2="143.1" y2="-23" gradientTransform="translate(0 22) scale(1 -1)" gradientUnits="userSpaceOnUse">
      <stop offset="0" stop-color="#a3a5a8"/>
      <stop offset="1" stop-color="#fff"/>
    </linearGradient>
    <linearGradient id="linear-gradient-22" x1="220.1" y1="62.8" x2="134.9" y2="-13.8" gradientTransform="translate(0 22) scale(1 -1)" gradientUnits="userSpaceOnUse">
      <stop offset="0" stop-color="#a3a5a8"/>
      <stop offset="1" stop-color="#fff"/>
    </linearGradient>
  </defs>
  <!-- Generator: Adobe Illustrator 28.6.0, SVG Export Plug-In . SVG Version: 1.2.0 Build 709)  -->
  <g>
    <g id="Layer_1">
      <g id="Layer_1-2" data-name="Layer_1">
        <g id="Layer_1-2">
          <g id="Layer_1-2-2" data-name="Layer_1-2">
            <g id="Layer_1-2-2">
              <path class="cls-9" d="M118.8,17.7v-.5c.3-.8,1-2.3,1.8-3.9l2.2-4.3,2.6,3.9c1.5,2.2,2.6,4,2.5,4h0c-.2.2-7.9.9-9.1.8Z"/>
              <path class="cls-8" d="M128.4,27.5s-4,6.6-4.3,6.9c-.2,0-.3.2-.2.3,0,0,0,.3-.2.6,0,.3-.9-.8-2.4-3.7-1.3-2.3-2.4-4.3-2.4-4.4,0-.2,9.4,0,9.6.2h0v.2h-.1Z"/>
              <path class="cls-7" d="M126.5,20.7c1.5-.9,2.6-1.6,2.9-1.5.2.2.3,6.2,0,6.2s-5.6-2.9-5.6-3c0,0,1.3-.8,2.6-1.7h.1Z"/>
              <path class="cls-6" d="M129.8,16.6c-.2-.2-1.8-5.3-1.8-5.6s0-.2.3-.2c.6,0,5.4,1.3,5.7,1.5,0,0-.7,1.3-1.9,2.4s-2.3,2.2-2.4,2.1h0v-.2h0Z"/>
              <path class="cls-3" d="M135.1,18.3c0,.3-1.6,3.3-1.8,3.3-.3,0-2.4-3.1-2.2-3.2.2-.2,3.9-.2,3.9,0h.1Z"/>
              <path class="cls-4" d="M128.7,34c-.2,0,.9-4.8,1.4-6.1,0-.3.9.2,2.4,1.8,1.4,1.3,2.4,2.4,2.3,2.4h0s-5.8,1.8-6.1,1.8h0v.2h0Z"/>
              <path class="cls-2" d="M126.6,5.4s1.8-1.3,4-2.4c2.3-1.1,4.1-2.2,4.2-2.2.2,0,0,8.8-.3,9.3-.2.2-7.9-4.3-7.9-4.8h0Z"/>
              <path class="cls-1" d="M135.3,26.1h-4.3l1.3-1.9,1.3-1.9.9,1.9h0l1,1.8h-.2Z"/>
              <path class="cls-5" d="M135.6,34.1s.9,9.1.7,9.3-8.6-3.8-8.5-4c0,0,1.8-1.4,3.9-2.7s3.9-2.5,3.9-2.4h0v-.2Z"/>
              <path class="cls-11" d="M137.9,16.4l-1.9.9v-4.3l1.7,1.1c.9.6,1.8,1.1,1.9,1.3,0,0-.7.6-1.7,1.1h0Z"/>
              <path class="cls-12" d="M138.8,27.9l1.9.9-1.6,1.1c-.9.7-1.7,1-1.9.9,0,0-.3-1-.3-2.1v-1.8s.9.5,2.1.9h-.2Z"/>
              <path class="cls-13" d="M144.2,17.1c-.9,0-2.9-1.1-2.9-1.6s.6-.8,1.4-1.3c1.7-1.1,2.2-.9,2.2,1.3s0,1.6-.6,1.6h0Z"/>
              <path class="cls-14" d="M144.8,32.1c-.3.2-3.2-1.6-3.2-2.1s.6-.8,1.5-1.1c.8-.5,1.6-.7,1.8-.8.5,0,.6,3.5,0,3.9h-.1Z"/>
              <path class="cls-16" d="M147.1,24.8c.6-1.1,1.4-1.1,2.2,0,1.3,1.7.6,2.5-1.6,2.3h0c-1,0-1.3-.9-.6-2.3h0Z"/>
              <path class="cls-20" d="M146.7,20.1c-.5-.9-.6-1.1-.2-1.5.7-.7,2.7-.6,3.1.3,0,.2,0,.9-.5,1.5-.8,1.3-1.7,1.3-2.4-.2h0Z"/>
              <path class="cls-21" d="M152.4,12.7c0,1.8-2.4,2.6-3.7,1.5-.7-.7-.7-2.3,0-2.9,1.1-1.4,3.5-.3,3.5,1.5h.2Z"/>
              <path class="cls-22" d="M146.8,8.4c-1-.5-1.1-.6-1.4-3.9-.2-2.4,0-2.7.3-3.3.2-.2.5-.5.8-.5h.7c.7,0,1.6.5,2.9,1.1,3.5,1.7,3.7,2.6.6,4.9-2.7,1.9-3,2.2-4,1.7h0Z"/>
              <path class="cls-23" d="M149.2,33.7c-1-1.3-.7-2.7.7-3.2,1.5-.6,3.3.9,3,2.3-.5,1.8-2.5,2.4-3.5,1h-.2Z"/>
              <path class="cls-15" d="M153,42c-.3.7-3.5,2.3-4.6,2.3s-1.1-.3-1.5-.7c-.7-.6-.8-.9-.8-2.7s0-2.2.9-2.9c1.1-1.1,1.9-1,3.8,0h0c2.3,1.3,2.9,2.5,2.2,4h0Z"/>
              <path class="cls-18" d="M156.5,22.4c0,.9-1.1,2.1-2.2,2.1s-1.5-.2-1.9-1.1c-.5-.9-.5-1.4.3-2.3.5-.6.9-.8,1.6-.8h0c1,0,2.3,1.1,2.3,2.1h-.1Z"/>
              <path class="cls-17" d="M158.2,33.6c-2.5-.8-3-4.1-.8-5.5,1.1-.7,2.2-.7,3.3,0,3,1.8.8,6.5-2.5,5.5Z"/>
              <path class="cls-19" d="M156.7,12c1.4-1.4,2.9-1.4,4.2,0,.8.7.9,1,.9,2.3s0,1.5-.9,2.2c-.7.7-1.1.9-2.2.9h0c-2.9,0-4.2-3-2.2-5h0v-.2l.2-.2Z"/>
            </g>
          </g>
        </g>
        <g>
          <path class="cls-10" d="M23,28.8h-2.2c-1.3,0-2.4-.4-3.3-1.4-.9-.9-1.4-2.1-1.4-3.3v-12.9l3.7-1.4v14.3c0,.3.2.5.3.7.2.2.4.3.7.3h2.2s0,3.7,0,3.7Z"/>
          <path class="cls-10" d="M22.4,28.8v-3.7h3.5c.3,0,.5,0,.7-.3.2-.2.3-.4.3-.7v-5.7l3.7-1.4v8h2.4v3.7s-10.5,0-10.5,0ZM27.6,13.5l2.5-2.5,2.7,2.7-2.7,2.7-2.5-2.5-2.4,2.5-2.7-2.7,2.7-2.7,2.4,2.5Z"/>
          <path class="cls-10" d="M35.3,34.5l-2.7-2.7,2.7-2.7,2.7,2.7-2.7,2.7ZM32.5,28.7v-3.7h5c.3,0,.5,0,.7-.3s.3-.4.3-.7v-5.7l3.7-1.4v7c0,1.3-.4,2.4-1.4,3.3s-2,1.4-3.3,1.4h-5,0ZM40.1,34.5l-2.7-2.7,2.7-2.7,2.7,2.7-2.7,2.7Z"/>
          <path class="cls-10" d="M51.8,28.8h-2.2c-1.3,0-2.4-.4-3.3-1.4-.9-.9-1.4-2.1-1.4-3.3v-12.9l3.7-1.4v14.3c0,.3.2.5.3.7.2.2.4.3.7.3h2.2v3.7Z"/>
          <path class="cls-10" d="M66.8,28.8c-1.5,0-2.7-.4-3.6-1.4-.9.9-2.1,1.4-3.6,1.4s-2.6-.4-3.6-1.4c-.9.9-2.1,1.4-3.6,1.4h-1.1v-3.7c1.2,0,2-.2,2.3-.5s.5-.8.5-1.4v-3.3l3.7-1.4v5c0,.4.3.8.5,1,.3.3.8.5,1.2.5s.9-.2,1.2-.5.5-.8.5-1.4v-4.4l3.7-1.4v5.7c0,.6.2,1,.5,1.4s.8.5,1.2.5.9-.2,1.3-.5.5-.8.5-1.4v-4.7l3.7-1.4v6.1c0,1.5-.5,2.8-1.5,3.9s-2.3,1.6-3.9,1.6v.2Z"/>
          <path class="cls-10" d="M78.2,34.4h-3.1l-1.5-3.6h3.8c.3,0,.5,0,.7-.3s.3-.4.3-.8v-11.3l3.7-1.4v12.7c0,1.3-.4,2.4-1.4,3.3-.7.7-1.5,1.1-2.5,1.3h0Z"/>
          <path class="cls-10" d="M96.1,28.8v1c0,1.3-.4,2.4-1.4,3.3s-1.9,1.4-3.2,1.4h-5.6l-1.6-3.7h7.5c0,0,.2,0,.3-.3.2-.2.3-.4.3-.8v-4.7l-1.9,3.7h-1.5c-1,0-1.9-.3-2.7-.7s-1.5-1.1-2.1-2-.8-1.9-.8-3.2.3-2.1.8-3,1.2-1.5,2.1-2c.9-.5,1.7-.7,2.7-.7h7v7.9h2.2v3.7h-2.2ZM92.4,25v-4.2h-3.3c-.6,0-1,.2-1.4.6-.3.3-.5.9-.5,1.5s.2,1.2.5,1.5.8.6,1.4.6c0,0,3.3,0,3.3,0Z"/>
          <path class="cls-10" d="M111.3,28.9h-13.6v-3.7h2.6c-.3-.5-.3-1.2-.3-2.1s.3-2.1.8-3,1.2-1.5,2.1-2c.9-.5,1.7-.7,2.7-.7h5.8v11.6h0ZM107.6,25.2v-4.2h-2.1c-.6,0-1,.2-1.4.6s-.5.9-.5,1.5.2,1.2.5,1.5.8.6,1.4.6c0,0,2.1,0,2.1,0ZM106.4,16.5l-2.7-2.7,2.7-2.7,2.7,2.7-2.7,2.7Z"/>
        </g>
      </g>
    </g>
  </g>
</svg>